:FULLY-SPECIFIED
:DEGREES
219
root -0.567874014377594 -0.567874014377594 -0.567874014377594 -0.5678755879732001 -0.5678755879732001 -0.5678755879732001
lhipjoint -9.671654586443837e-08 -1.5341245206083327e-07 1.0672170578144923e-06
lfemur 5.081319659917809 -9.662381750871898 1.5002381378669012
ltibia -2.768043657617799 1.682045248845089e-07 -8.322460746123268e-08
lfoot -4.915633784805286 1.2484392622325445e-06 7.432473543477183
ltoes -12.23048335992521 2.125518384745906e-06 9.159498771640875e-08
rhipjoint 1.1005675908711953e-07 6.870210827458292e-07 -1.494104084495789e-06
rfemur 14.013119190842579 3.6815005640540224 5.807433228600456
rtibia -18.539867190629902 -8.01663234794996e-07 -9.268700190518618e-07
rfoot -0.31969036583617894 2.578409219391849e-06 -10.562029508910237
rtoes 1.2277948052014922 8.657957103920893e-08 1.2923685237152946e-07
lowerback -0.8399079353496448 0.6580477453957084 4.239280278660297
upperback -5.49357493718097 2.267390578012453 0.12745140995371726
thorax -6.412972614091223 0.8305782171085248 -3.0844043595944495
lowerneck -11.457395592112624 -2.029057957114028 -1.9248847656666397
upperneck 23.5797988923852 -3.0151462414105206 2.3060364286666197
head 9.370881229926802 -1.331763944747426 0.7745436119620046
lclavicle -1.4085775951116125e-07 5.4855408257763046e-08 -1.0938974842598547e-06
lhumerus -129.4815626620892 -10.896381782934347 7.229354816618405
lradius 47.29203173768236 3.1261076564268536e-07 1.850676934945537e-06
lwrist 4.76902241380371e-06 75.20385249793875 -1.1499299013052587e-06
lhand -4.562975323145072 2.6246558075710764e-07 -26.656099019086014
lfingers 7.125022823272814 9.845282338726802e-08 3.18924141240953e-07
lthumb 21.213298854421275 -1.2803152392500461e-07 2.20318914769186
rclavicle 1.398304276268298e-07 4.3880174074018323e-07 -1.3740421654916584e-06
rhumerus -138.1630746066339 10.93433458283117 16.4038433484716
rradius 30.438816583337278 -7.534077573900817e-08 -3.2938296529995282e-06
rwrist -3.9075620538868297e-07 -40.08310174800323 -8.735084537168885e-07
rhand -6.972260092956778 2.0321462048512455e-07 -36.68780446630613
rfingers 7.125022396385991 5.1024341088409163e-08 -3.1892353057445414e-07
rthumb 18.897492480477187 1.5447771905696147e-06 -65.78980959509936
220
root -0.567874014377594 -0.567874014377594 -0.567874014377594 -0.5678755879732001 -0.5678755879732001 -0.5678755879732001
lhipjoint -9.671654586443837e-08 -1.5341245206083327e-07 1.0672170578144923e-06
lfemur 6.8154773694273665 -10.690232159631377 0.6711905768235469
ltibia -3.4883413202221805 2.786726696363476e-07 7.463069273415586e-07
lfoot -5.725899126043899 -1.8022665518054167e-06 8.854425867346396
ltoes -13.16239180896081 -3.7085287941414567e-07 6.57599781498169e-07
rhipjoint 1.1005675908711953e-07 6.870210827458292e-07 -1.494104084495789e-06
rfemur 17.463659896320383 4.458790178866637 5.906908103672523
rtibia -23.456237355205083 -1.5069357143026852e-06 -8.082000634429645e-07
rfoot 1.679148646594744 3.476618013431608e-06 -12.681368052699847
rtoes 1.8142209735170354 -1.5805660131784398e-06 1.6267193729388438e-07
lowerback 0.282961183656994 0.5068273038107732 3.282097781818122
upperback -5.07909088381427 1.8854463996253399 0.9045223786716118
thorax -6.474991158641761 0.726690986471778 -1.6002450206422874
lowerneck -11.457395592112624 -2.029057957114028 -1.9248847656666397
upperneck 23.5797988923852 -3.0151462414105206 2.3060364286666197
head 9.370881229926802 -1.331763944747426 0.7745436119620046
lclavicle -1.4085775951116125e-07 5.4855408257763046e-08 -1.0938974842598547e-06
lhumerus -138.77949917922757 -3.3457094679925663 19.592418124749088
lradius 49.89954524579394 7.44828300192365e-07 3.470315935163569e-06
lwrist 3.8112319072495328e-06 72.3409104054362 -9.189901821063172e-07
lhand -4.562975323145072 2.6246558075710764e-07 -26.656099019086014
lfingers 7.125022823272814 9.845282338726802e-08 3.18924141240953e-07
lthumb 21.213298854421275 -1.2803152392500461e-07 2.20318914769186
rclavicle 1.398304276268298e-07 4.3880174074018323e-07 -1.3740421654916584e-06
rhumerus -141.81155675557963 3.871360186186513 10.545685720000042
rradius 31.64272280191665 -2.183552057685762e-07 -3.1471886781888434e-06
rwrist -6.772562200961123e-07 -52.94333367204549 -1.5139521705966186e-06
rhand -6.972260092956778 2.0321462048512455e-07 -36.68780446630613
rfingers 7.125022396385991 5.1024341088409163e-08 -3.1892353057445414e-07
rthumb 18.897492480477187 1.5447771905696147e-06 -65.78980959509936
221
root -0.567874014377594 -0.567874014377594 -0.567874014377594 -0.5678755879732001 -0.5678755879732001 -0.5678755879732001
lhipjoint -9.671654586443837e-08 -1.5341245206083327e-07 1.0672170578144923e-06
lfemur 7.615319415105716 -10.361752140746184 -0.20541074891320646
ltibia -3.5870919817988134 3.055789409085313e-07 7.424439528476403e-07
lfoot -6.424971122028819 -1.329034008972081e-06 9.426698389597792
ltoes -14.506351910244941 -3.082180379610225e-07 7.684841972467176e-07
rhipjoint 1.1005675908711953e-07 6.870210827458292e-07 -1.494104084495789e-06
rfemur 19.10434134439644 5.241420574723377 6.10953377625059
rtibia -26.199304505132027 -1.8195030208462031e-06 -7.349393195767586e-07
rfoot 2.614624375367796 2.8491502472080006e-06 -13.93724688822114
rtoes 1.7468890754007553 9.762871876930712e-07 1.8657874194594835e-07
lowerback 2.506378470184376 0.21536951156862885 2.924181995487702
upperback -4.707241298133612 1.5563270110008112 1.5617914825019388
thorax -7.171573977561036 0.5905790300526167 -0.589199385201127
lowerneck -11.457395592112624 -2.029057957114028 -1.9248847656666397
upperneck 23.5797988923852 -3.0151462414105206 2.3060364286666197
head 9.370881229926802 -1.331763944747426 0.7745436119620046
lclavicle -1.4085775951116125e-07 5.4855408257763046e-08 -1.0938974842598547e-06
lhumerus -143.88737418775156 3.3785656661080896 26.970832428492912
lradius 50.64397780871738 2.7807676091122863e-07 2.3231713855372738e-06
lwrist 2.460626511316893e-06 65.55493304992095 -5.933145120541782e-07
lhand -4.562975323145072 2.6246558075710764e-07 -26.656099019086014
lfingers 7.125022823272814 9.845282338726802e-08 3.18924141240953e-07
lthumb 21.213298854421275 -1.2803152392500461e-07 2.20318914769186
rclavicle 1.398304276268298e-07 4.3880174074018323e-07 -1.3740421654916584e-06
rhumerus -141.43683891733437 -4.7276733821488826 4.665180139451027
rradius 33.14894343844455 -2.434356859869751e-07 -3.496184175165473e-06
rwrist -1.021976949803105e-06 -61.502055890786295 -2.284555685927564e-06
rhand -6.972260092956778 2.0321462048512455e-07 -36.68780446630613
rfingers 7.125022396385991 5.1024341088409163e-08 -3.1892353057445414e-07
rthumb 18.897492480477187 1.5447771905696147e-06 -65.78980959509936
222
root -0.567874014377594 -0.567874014377594 -0.567874014377594 -0.5678755879732001 -0.5678755879732001 -0.5678755879732001
lhipjoint -9.671654586443837e-08 -1.5341245206083327e-07 1.0672170578144923e-06
lfemur 7.865741470835064 -9.110843121619723 -1.0946876517694606
ltibia -3.4947211437937957 2.804106264920491e-07 7.460584369654052e-07
lfoot -6.776068885463686 -1.537749436945453e-06 9.285396289822215
ltoes -15.829320278888684 5.797306428984594e-07 5.433601604494883e-07
rhipjoint 1.1005675908711953e-07 6.870210827458292e-07 -1.494104084495789e-06
rfemur 19.766692108969256 5.936556674199078 6.21433406444115
rtibia -27.933532224080576 -5.765122268940677e-07 7.738612175467624e-07
rfoot 3.1326129019734577 4.143956398920044e-07 -14.671425629653102
rtoes 1.4894455852046349 1.0491113050126059e-07 1.385388552595624e-07
lowerback 5.348788587155039 -0.13787418524566417 2.9078853775714633
upperback -4.368629547388353 1.282750400541709 2.136947838686961
thorax -8.177703530986227 0.4474866469821289 0.11568978418231564
lowerneck -11.457395592112624 -2.029057957114028 -1.9248847656666397
upperneck 23.5797988923852 -3.0151462414105206 2.3060364286666197
head 9.370881229926802 -1.331763944747426 0.7745436119620046
lclavicle -1.4085775951116125e-07 5.4855408257763046e-08 -1.0938974842598547e-06
lhumerus -145.4738768677838 9.187768127146992 30.080228236817025
lradius 50.601859447200496 1.5826444166072452e-06 3.978276064008494e-06
lwrist 1.6958031579529773e-06 58.51005054372719 -4.089020331795559e-07
lhand -4.562975323145072 2.6246558075710764e-07 -26.656099019086014
lfingers 7.125022823272814 9.845282338726802e-08 3.18924141240953e-07
lthumb 21.213298854421275 -1.2803152392500461e-07 2.20318914769186
rclavicle 1.398304276268298e-07 4.3880174074018323e-07 -1.3740421654916584e-06
rhumerus -138.2393814800413 -14.013746714472575 0.03614792574369954
rradius 34.09394109125083 -1.2345926029268245e-07 -4.14099222373467e-06
rwrist -1.4569509311508032e-06 -67.79313822960994 -3.2569077387021035e-06
rhand -6.972260092956778 2.0321462048512455e-07 -36.68780446630613
rfingers 7.125022396385991 5.1024341088409163e-08 -3.1892353057445414e-07
rthumb 18.897492480477187 1.5447771905696147e-06 -65.78980959509936
